Results
version=1
nRows=4
nColumns=85
inDegrees=yes
endheader
time	thorax_sagittal	thorax_frontal	thorax_horizontal	thorax_transx	thorax_transy	thorax_transz	cervix_sagittal	cervix_frontal	cervix_horizontal	caput_sagittal	caput_frontal	caput_horizontal	abdomen_sagittal	abdomen_frontal	abdomen_horizontal	cauda_sagittal	cauda_frontal	cauda_horizontal	left_r_m_superioris_sagittal	left_r_m_superioris_frontal	left_r_m_superioris_horizontal	left_r_m_superioris_transx	left_r_m_superioris_transy	left_r_m_superioris_transz	left_r_deltoidea_sagittal	left_r_deltoidea_frontal	left_r_deltoidea_horizontal	left_r_cubitalis_sagittal	left_r_cubitalis_frontal	left_r_cubitalis_horizontal	left_r_carpalis_sagittal	left_r_carpalis_frontal	left_r_carpalis_horizontal	left_r_forepaw_sagittal	left_r_forepaw_frontal	left_r_forepaw_horizontal	right_r_m_superioris_sagittal	right_r_m_superioris_frontal	right_r_m_superioris_horizontal	right_r_m_superioris_transx	right_r_m_superioris_transy	right_r_m_superioris_transz	right_r_deltoidea_sagittal	right_r_deltoidea_frontal	right_r_deltoidea_horizontal	right_r_cubitalis_sagittal	right_r_cubitalis_frontal	right_r_cubitalis_horizontal	right_r_carpalis_sagittal	right_r_carpalis_frontal	right_r_carpalis_horizontal	right_r_forepaw_sagittal	right_r_forepaw_frontal	right_r_forepaw_horizontal	m_inferioris_sagittal	m_inferioris_frontal	m_inferioris_horizontal	m_inferioris_transx	m_inferioris_transy	m_inferioris_transz	left_r_coxae_sagittal	left_r_coxae_frontal	left_r_coxae_horizontal	left_r_genus_sagittal	left_r_genus_frontal	left_r_genus_horizontal	left_r_talocruralis_sagittal	left_r_talocruralis_frontal	left_r_talocruralis_horizontal	left_r_hindpaw_sagittal	left_r_hindpaw_frontal	left_r_hindpaw_horizontal	right_r_coxae_sagittal	right_r_coxae_frontal	right_r_coxae_horizontal	right_r_genus_sagittal	right_r_genus_frontal	right_r_genus_horizontal	right_r_talocruralis_sagittal	right_r_talocruralis_frontal	right_r_talocruralis_horizontal	right_r_hindpaw_sagittal	right_r_hindpaw_frontal	right_r_hindpaw_horizontal
      4.58933333	   -105.03542494	     24.95359246	    -32.84441898	     -0.40145394	      0.30440084	     -4.77977950	     64.04755942	     15.22065621	     18.32378148	    -22.29105353	     14.16710445	    -27.37716157	      1.72664500	     -8.01487979	     14.22251533	      0.75418818	     -5.00955511	     -2.26683716	    -33.34977923	    -40.37316716	      2.13200171	      0.05168286	     -0.15419463	      0.05262421	     87.46949154	      0.08720322	    -20.91603834	    -54.42467624	     27.66951545	     21.53559826	    -22.33359716	      6.22049435	      0.80000000	      0.00000000	      0.00000000	      0.00000000	     -4.60965134	     25.63682560	     11.42618248	     -0.01291159	     -0.16438565	      0.04655255	     94.05402365	     -1.82451677	     30.15070930	    -67.33454666	    -25.28368527	      7.40666582	      2.72591869	     -6.74603806	      0.80000000	      0.00000000	      0.00000000	      0.00000000	     30.56198605	     -3.76861992	     -2.91750128	     -0.00633173	     -0.06386074	      0.01885990	    -79.18377302	    -15.11785230	     -9.13508793	    127.99144635	     -0.63753012	      1.56337022	    -94.97124672	      2.96868086	      2.30000000	      0.00000000	      0.00000000	      0.00000000	    -79.75229904	     -4.38466775	      0.16078603	    120.80934578	     -2.37895372	      5.19129647	    -96.76020763	     -3.58394269	      2.30000000	      0.00000000	      0.00000000	      0.00000000
      4.60600000	   -104.03995465	     24.47983028	    -33.02874864	     -0.40931732	      0.30809959	     -4.76970334	     64.01763855	     15.08292119	     18.16723207	    -21.91229448	     14.02179943	    -26.88393527	      3.39199933	     -7.56779493	     13.92314556	      0.63601896	     -4.96353554	     -2.30911778	    -32.59256367	    -40.87396996	      1.97413597	      0.05161986	     -0.15458516	      0.05306420	     87.87078963	     -0.04947327	    -21.40985414	    -53.89466050	     27.90798091	     21.31588686	    -25.29242985	      7.59195803	      0.80000000	      0.00000000	      0.00000000	      0.00000000	     -6.14028352	     24.98798017	     11.53779969	     -0.01320924	     -0.16332968	      0.04654969	     96.67871522	     -1.88418174	     27.99408169	    -69.36080214	    -23.20298901	      7.70638199	      8.41667013	    -14.37605431	      0.80000000	      0.00000000	      0.00000000	      0.00000000	     30.44445332	     -3.75250589	     -2.97494562	     -0.00629546	     -0.06408414	      0.01906817	    -78.84953070	    -15.35156084	     -8.84445307	    125.41773379	     -0.13722160	      1.78276862	    -90.89130027	      2.76727446	      2.30000000	      0.00000000	      0.00000000	      0.00000000	    -79.65626248	     -5.05539463	      0.32290884	    118.41900983	     -2.46512107	      4.83455697	    -93.47798300	     -3.24861742	      2.30000000	      0.00000000	      0.00000000	      0.00000000
      4.62266667	   -103.28559969	     23.59745058	    -32.78071709	     -0.41753703	      0.31140842	     -4.75982171	     64.06077435	     14.18355030	     18.57426136	    -21.13226478	     13.41928464	    -28.40900889	      4.86052590	     -7.18745934	     12.57158169	      0.71447884	     -4.78501691	     -1.88243964	    -31.37369963	    -40.22200804	      1.46209174	      0.05186467	     -0.15477339	      0.05354384	     88.30033352	     -0.55260610	    -21.44456696	    -55.04900187	     28.40289332	     21.29482063	    -27.98699148	      8.43582829	      0.80000000	      0.00000000	      0.00000000	      0.00000000	     -7.01264948	     24.75819466	     11.21304028	     -0.01367476	     -0.16305929	      0.04704899	     98.81400229	     -2.49291895	     25.73289959	    -73.85219394	    -21.00521146	      9.04835190	     17.47088927	    -21.16407467	      0.80000000	      0.00000000	      0.00000000	      0.00000000	     30.55711064	     -3.38765874	     -2.70422271	     -0.00594242	     -0.06435720	      0.01939680	    -78.62326175	    -14.73681824	     -8.72907138	    122.73564555	      0.11192636	      1.96532887	    -87.25942456	      2.58794879	      2.30000000	      0.00000000	      0.00000000	      0.00000000	    -79.65301372	     -5.57214848	      0.54767953	    115.94044794	     -2.45111304	      4.50214218	    -90.21945195	     -2.92684779	      2.30000000	      0.00000000	      0.00000000	      0.00000000
      4.63933333	   -102.36875344	     22.80873917	    -32.82322048	     -0.42563585	      0.31399855	     -4.75054531	     63.66820379	     13.38538477	     19.23495869	    -20.42782901	     12.90856326	    -29.28317918	      6.23846819	     -6.81836836	     11.69931803	      0.76447456	     -4.65403963	     -1.88863974	    -30.36668707	    -40.70919509	      1.15979677	      0.05200851	     -0.15518974	      0.05362268	     88.57081976	     -0.84073878	    -21.91475597	    -55.96460384	     29.81410210	     21.93305809	    -30.00460005	      7.68614191	      0.80000000	      0.00000000	      0.00000000	      0.00000000	     -7.57820780	     25.03570653	     12.04231325	     -0.01315554	     -0.16423623	      0.04748319	     96.65955831	     -1.58231862	     26.30624402	    -80.53023642	    -21.94398438	     10.82092485	     25.87745479	    -26.22889495	      0.80000000	      0.00000000	      0.00000000	      0.00000000	     30.61697758	     -3.27994482	     -2.77312268	     -0.00563310	     -0.06457765	      0.01965845	    -78.93894844	    -15.06489871	     -8.41322660	    120.30615256	      0.59509881	      2.15470221	    -82.45510915	      2.38425081	      2.30000000	      0.00000000	      0.00000000	      0.00000000	    -79.55461265	     -6.43378524	      0.92045637	    113.26207116	     -2.30616179	      4.06670640	    -87.06336671	     -2.49044128	      2.30000000	      0.00000000	      0.00000000	      0.00000000
